<svg width="40" height="40" viewBox="0 0 40 40" fill="none" xmlns="http://www.w3.org/2000/svg">
<path opacity="0.4" d="M32.0167 10.6017C30.2833 7.10167 26.9333 4.51833 23.05 3.66833C18.9833 2.76833 14.8167 3.735 11.6333 6.30167C10.062 7.55138 8.79435 9.14089 7.92547 10.9508C7.05659 12.7607 6.60912 14.744 6.61667 16.7517C6.61667 21.0683 9.2 25.585 13.1 28.2017V29.585C13.0833 30.0517 13.0667 30.7683 13.6333 31.3517C14.2167 31.9517 15.0833 32.0183 15.7667 32.0183H24.3167C25.2167 32.0183 25.9 31.7683 26.3667 31.3017C27 30.6517 26.9833 29.8183 26.9667 29.3683V28.2017C32.1333 24.7183 35.3833 17.3683 32.0167 10.6017Z" fill="#F0DB21"/>
<path d="M25.4333 36.6633C25.3333 36.6633 25.2167 36.6467 25.1167 36.6133C21.7667 35.6633 18.25 35.6633 14.9 36.6133C14.2833 36.78 13.6333 36.43 13.4667 35.8133C13.4236 35.6667 13.4102 35.5129 13.4272 35.3611C13.4443 35.2092 13.4914 35.0622 13.5659 34.9288C13.6404 34.7953 13.7407 34.6781 13.861 34.5838C13.9814 34.4896 14.1193 34.4203 14.2667 34.38C18.0333 33.3133 22 33.3133 25.7667 34.38C26.3833 34.5633 26.75 35.1967 26.5667 35.8133C26.4 36.33 25.9333 36.6633 25.4333 36.6633ZM20 23.0833C19.7825 23.0807 19.5694 23.0216 19.3816 22.9119C19.1937 22.8022 19.0376 22.6457 18.9284 22.4575C18.8192 22.2694 18.7608 22.0562 18.7587 21.8386C18.7566 21.6211 18.8111 21.4068 18.9167 21.2167L20.3333 18.75H18.9333C18.1 18.75 17.4167 18.3833 17.05 17.7667C16.6833 17.1333 16.7167 16.3667 17.1333 15.6333L18.9167 12.5333C19.2667 11.9333 20.0333 11.7333 20.6167 12.0667C21.2167 12.4167 21.4167 13.1833 21.0833 13.7667L19.6667 16.25H21.0667C21.9 16.25 22.5833 16.6167 22.95 17.2333C23.3167 17.8667 23.2833 18.6333 22.8667 19.3667L21.0833 22.4667C20.85 22.8667 20.4333 23.0833 20 23.0833Z" fill="white"/>
</svg>
