<svg width="40" height="40" viewBox="0 0 40 40" fill="none" xmlns="http://www.w3.org/2000/svg">
<path d="M20 13.15L18.2167 16.25C17.8167 16.9333 18.15 17.5 18.9333 17.5H21.05C21.85 17.5 22.1667 18.0667 21.7667 18.75L20 21.85" stroke="white" stroke-width="1.5" stroke-linecap="round" stroke-linejoin="round"/>
<path d="M14.1667 36.6667C17.9833 35.5833 22.0167 35.5833 25.8333 36.6667M13.8333 30.0667V28.1333C10 25.8167 6.85001 21.3 6.85001 16.5C6.85001 8.25001 14.4333 1.78334 23 3.65001C26.7667 4.48334 30.0667 6.98334 31.7833 10.4333C35.2667 17.4333 31.6 24.8667 26.2167 28.1167V30.05C26.2167 30.5333 26.4 31.65 24.6167 31.65H15.4333C13.6 31.6667 13.8333 30.95 13.8333 30.0667V30.0667Z" stroke="#F0DB21" stroke-width="1.5" stroke-linecap="round" stroke-linejoin="round"/>
</svg>
