<svg width="30" height="30" viewBox="0 0 30 30" fill="none" xmlns="http://www.w3.org/2000/svg">
<path d="M25.9091 13.6364C25.9091 16.0637 25.1893 18.4365 23.8408 20.4547C22.4922 22.473 20.5755 24.046 18.333 24.9749C16.0904 25.9038 13.6228 26.1468 11.2421 25.6733C8.86142 25.1997 6.67462 24.0309 4.95825 22.3145C3.24188 20.5981 2.07302 18.4113 1.59947 16.0307C1.12592 13.65 1.36896 11.1823 2.29786 8.9398C3.22675 6.69725 4.79978 4.78051 6.81802 3.43197C8.83626 2.08342 11.2091 1.36364 13.6364 1.36364M17.7273 5.45455H25.9091M17.7273 9.54546H21.8182M24.45 26.85C25.1727 29.0318 26.8227 29.25 28.0909 27.3409C29.25 25.5955 28.4864 24.1636 26.3864 24.1636C24.8318 24.15 23.9591 25.3636 24.45 26.85V26.85Z" stroke="white" stroke-width="1.5" stroke-linecap="round" stroke-linejoin="round"/>
</svg>
